<svg xmlns="http://www.w3.org/2000/svg" viewBox="0 0 154.89 81.67"><defs><style>.cls-1{fill:#3abced;}</style></defs><g id="레이어_2" data-name="레이어 2"><g id="레이어_1-2" data-name="레이어 1"><path class="cls-1" d="M19.7,11.81A19.41,19.41,0,1,0,38.93,31.22,19.32,19.32,0,0,0,19.7,11.81Zm0,28.6a9.19,9.19,0,1,1,9.11-9.19A9.15,9.15,0,0,1,19.7,40.41Z"/><path class="cls-1" d="M124,53V71.58c0,5.57-3.84,10.06-8.69,10.06l-21.22,0c-4.85,0-8.73-4.59-8.73-10.16V52.92c0-5.56,3.88-10,8.73-10l21.22,0C120.2,42.86,124,47.42,124,53ZM94.55,72.68h20.19V51.84l-20.18,0Z"/><path class="cls-1" d="M70.55,34.69a25,25,0,0,1-3.46-10.24l-.59-9.74-.11-3H57.47a2.6,2.6,0,0,0,0,.28l0,1.94L56.75,24.4a25.13,25.13,0,0,1-3.47,10.29c-2.4,3.93-5.91,8.17-10.74,8.17v7.89c7.67,0,13.71-2,18-9,.51-.85,1-1.73,1.42-2.63.44.9.91,1.78,1.42,2.63,4.25,7,10.29,9,18,9V42.86C76.45,42.86,72.94,38.62,70.55,34.69Z"/><path class="cls-1" d="M73,72.07C62.72,72,58.15,70.44,54.43,67,50,63,51.12,56.78,51.13,56.72v0l-8.6-3.45c-.12.36-2.91,11,4.54,18,.3.29.63.56,1,.83H36.11c-10-.37-19-1.72-22.88-5.92-4.4-4.81-3.62-11.38-3.61-11.44v-.05l-9.17-4c-.12.43-2.52,14,4.93,22.23,5.83,6.46,16.13,8.72,30.15,8.82H81.31l0-9.6Z"/><path class="cls-1" d="M136.67,5.41c-6.44,5.86-8.69,16.21-8.78,30.29h0v46l9.56,0V36.27c.37-10.09,1.71-19.11,5.89-23,4.79-4.42,11.44-3.64,11.51-3.63h0V.46A20.59,20.59,0,0,0,136.67,5.41Z"/></g></g></svg>