<?xml version="1.0" standalone="no"?>
<!DOCTYPE svg PUBLIC "-//W3C//DTD SVG 20010904//EN"
 "http://www.w3.org/TR/2001/REC-SVG-20010904/DTD/svg10.dtd">
<svg version="1.0" xmlns="http://www.w3.org/2000/svg"
 width="512.000000pt" height="512.000000pt" viewBox="0 0 512.000000 512.000000"
 preserveAspectRatio="xMidYMid meet">

<g transform="translate(0.000000,512.000000) scale(0.100000,-0.100000)"
fill="#000000" stroke="none">
<path d="M670 5106 c-116 -33 -221 -119 -273 -225 -32 -65 -32 -68 -35 -239
-4 -190 5 -242 58 -326 l27 -42 -76 -39 c-56 -28 -99 -61 -162 -124 -72 -72
-94 -101 -132 -181 -66 -135 -94 -291 -65 -355 25 -56 8 -55 763 -55 755 0
738 -1 763 55 7 14 12 44 12 66 0 56 -28 185 -53 244 -60 143 -186 282 -318
350 l-76 39 29 45 c40 63 56 125 64 239 8 122 -8 248 -40 318 -81 177 -301
281 -486 230z m171 -197 c51 -16 105 -62 131 -112 20 -37 22 -57 22 -177 0
-120 -2 -140 -22 -177 -67 -128 -227 -161 -338 -70 -62 51 -74 91 -74 250 0
156 11 193 75 244 63 50 131 64 206 42z m111 -800 c143 -30 285 -141 345 -269
17 -36 33 -77 37 -92 l6 -28 -565 0 -565 0 6 28 c17 71 70 159 133 223 69 69
138 108 231 133 67 18 296 21 372 5z"/>
<path d="M2450 5105 c-146 -41 -256 -153 -294 -300 -21 -79 -21 -290 -1 -370
9 -33 29 -82 45 -108 17 -27 30 -50 30 -52 0 -2 -24 -14 -52 -28 -216 -100
-373 -331 -385 -568 -5 -91 -4 -96 20 -125 l25 -29 722 0 722 0 24 28 c21 24
24 38 24 100 0 235 -160 481 -385 594 -27 14 -51 27 -53 28 -1 1 11 24 27 51
50 81 64 156 59 323 -5 164 -20 217 -83 303 -96 131 -287 197 -445 153z m226
-221 c35 -21 56 -44 76 -83 26 -50 28 -61 28 -180 0 -142 -12 -182 -70 -238
-105 -102 -274 -74 -343 57 -28 54 -28 58 -25 191 3 131 4 137 33 184 64 104
196 134 301 69z m55 -774 c86 -16 194 -74 258 -140 57 -58 116 -158 127 -217
l7 -33 -563 0 -562 0 6 33 c12 60 70 159 129 218 63 63 170 123 247 138 63 12
287 13 351 1z"/>
<path d="M4239 5106 c-114 -32 -227 -127 -275 -230 -32 -70 -48 -196 -40 -318
8 -114 24 -176 64 -239 l29 -45 -76 -39 c-133 -69 -258 -206 -320 -353 -43
-102 -62 -256 -39 -307 25 -56 8 -55 763 -55 755 0 738 -1 763 55 29 64 1 220
-65 355 -38 80 -60 109 -132 181 -63 63 -106 96 -162 124 l-76 39 27 42 c53
84 62 136 58 326 l-3 173 -34 67 c-90 179 -296 275 -482 224z m172 -197 c52
-16 108 -64 130 -113 15 -33 19 -66 19 -176 0 -155 -13 -196 -74 -247 -111
-91 -271 -58 -338 70 -20 37 -22 57 -22 177 0 120 2 140 22 177 51 97 159 143
263 112z m111 -800 c167 -35 313 -163 368 -324 11 -32 20 -60 20 -62 0 -1
-254 -3 -565 -3 l-565 0 6 28 c17 71 70 159 133 223 69 69 138 108 231 133 67
18 296 21 372 5z"/>
<path d="M1029 3065 c-14 -8 -32 -27 -38 -43 -9 -22 -11 -227 -8 -838 3 -795
4 -811 26 -909 96 -431 329 -777 676 -1007 414 -275 909 -340 1384 -183 128
43 171 74 171 125 0 44 -24 85 -59 100 -36 14 -42 13 -177 -34 -158 -55 -255
-70 -444 -70 -117 0 -191 5 -253 17 -552 110 -977 525 -1098 1075 -20 87 -22
135 -26 480 l-5 382 261 0 261 0 0 -322 c0 -178 5 -352 10 -388 51 -320 281
-589 590 -688 448 -145 933 106 1078 558 36 110 42 184 42 518 l0 322 261 0
261 0 -5 -382 c-4 -346 -6 -392 -26 -481 -29 -129 -67 -234 -135 -364 -66
-125 -70 -160 -27 -204 38 -38 87 -39 130 -3 38 31 149 255 185 371 14 45 35
126 48 180 21 96 22 115 25 907 3 612 1 816 -8 838 -23 57 -32 58 -449 58
-403 0 -424 -2 -446 -47 -5 -10 -11 -369 -14 -798 l-5 -780 -27 -76 c-74 -209
-218 -354 -423 -425 -71 -25 -94 -28 -205 -28 -109 0 -134 3 -201 26 -208 73
-353 217 -426 423 l-28 80 -5 780 c-3 429 -9 788 -14 798 -22 45 -43 47 -448
47 -311 -1 -388 -3 -409 -15z m671 -445 l0 -260 -260 0 -260 0 0 260 0 260
260 0 260 0 0 -260z m2240 0 l0 -260 -260 0 -260 0 0 260 0 260 260 0 260 0 0
-260z"/>
<path d="M2511 3067 c-17 -8 -53 -70 -128 -221 -114 -230 -118 -246 -68 -296
24 -23 33 -25 145 -28 l119 -4 -60 -121 c-47 -95 -59 -128 -55 -152 14 -66 85
-101 145 -71 26 14 47 48 131 222 55 113 100 215 100 225 0 32 -27 74 -55 87
-15 7 -71 12 -130 12 -58 0 -105 3 -105 8 0 4 25 58 55 121 30 62 55 122 55
132 0 72 -80 119 -149 86z"/>
<path d="M3458 527 c-57 -53 -39 -137 34 -165 96 -37 172 86 99 159 -38 38
-96 40 -133 6z"/>
</g>
</svg>
