<?xml version="1.0" standalone="no"?>
<!DOCTYPE svg PUBLIC "-//W3C//DTD SVG 20010904//EN"
 "http://www.w3.org/TR/2001/REC-SVG-20010904/DTD/svg10.dtd">
<svg version="1.0" xmlns="http://www.w3.org/2000/svg"
 width="512.000000pt" height="512.000000pt" viewBox="0 0 512.000000 512.000000"
 preserveAspectRatio="xMidYMid meet">

<g transform="translate(0.000000,512.000000) scale(0.100000,-0.100000)"
fill="#000000" stroke="none">
<path d="M1340 4732 c-63 -31 -70 -60 -70 -289 l0 -203 -81 0 c-126 0 -165
-34 -176 -154 l-6 -65 -236 -3 c-221 -3 -239 -4 -277 -25 -67 -36 -101 -70
-131 -131 -27 -56 -28 -61 -28 -234 0 -169 1 -178 22 -199 29 -29 77 -29 106
0 21 20 22 33 27 194 3 108 10 180 17 193 27 47 66 54 292 54 l211 0 0 -75 0
-75 -163 0 c-188 0 -201 -5 -212 -83 -4 -23 -4 -261 -1 -527 3 -267 5 -803 6
-1192 l0 -707 22 -21 c22 -20 24 -20 1898 -20 1874 0 1876 0 1898 20 l22 21 0
1234 0 1234 -22 21 c-20 18 -35 20 -185 20 l-163 0 0 75 0 75 211 0 c175 0
217 -3 245 -16 68 -33 64 65 64 -1409 0 -1474 4 -1376 -64 -1409 -31 -15 -202
-16 -2006 -16 -1804 0 -1975 1 -2006 16 -68 32 -64 -33 -64 1092 0 718 -3
1028 -11 1051 -19 53 -81 69 -119 31 -20 -20 -20 -29 -18 -1088 2 -587 7
-1075 12 -1084 7 -16 1 -18 -79 -18 -48 0 -106 -6 -129 -12 -53 -16 -118 -81
-134 -134 -16 -54 -16 -304 0 -358 16 -53 81 -118 134 -134 32 -9 387 -12
1556 -12 l1515 0 27 21 c36 28 36 80 0 108 l-27 21 -1513 0 c-1501 0 -1514 0
-1534 20 -18 18 -20 33 -20 155 0 122 2 137 20 155 20 20 33 20 949 20 l928 0
11 -66 c13 -79 47 -128 106 -155 38 -17 71 -19 396 -19 325 0 358 2 396 19 59
27 93 76 106 155 l11 66 928 0 c916 0 929 0 949 -20 18 -18 20 -33 20 -155 0
-122 -2 -137 -20 -155 -20 -20 -33 -20 -735 -20 l-716 0 -24 -25 c-32 -31 -32
-69 0 -100 l24 -25 717 0 c538 0 727 3 758 12 53 16 118 81 134 134 16 54 16
304 0 358 -16 53 -81 118 -134 134 -23 6 -80 12 -128 12 -47 0 -86 2 -86 4 0
3 5 17 11 33 7 19 10 455 9 1392 0 1295 -1 1366 -19 1405 -26 60 -67 103 -125
134 -51 27 -53 27 -287 30 l-236 3 -6 65 c-11 120 -50 154 -176 154 l-81 0 0
200 c0 218 -7 254 -53 285 -51 33 -87 30 -233 -21 -76 -27 -146 -56 -156 -66
-24 -24 -23 -73 2 -98 28 -28 66 -25 181 15 56 19 103 35 105 35 2 0 3 -406 2
-901 l-3 -902 -345 -119 c-190 -66 -427 -148 -527 -183 l-183 -63 0 902 0 901
286 99 c258 90 286 102 300 127 25 49 -7 109 -59 109 -10 0 -151 -46 -313
-101 l-294 -102 -117 41 c-65 22 -321 110 -569 196 -248 86 -462 156 -475 156
-13 0 -40 -8 -59 -18z m623 -327 l517 -179 0 -903 0 -903 -27 11 c-16 6 -217
76 -448 156 -231 79 -456 157 -500 173 l-80 28 -3 902 c-2 720 0 901 10 898 7
-3 246 -85 531 -183z m-691 -1000 l3 -685 30 -30 c26 -25 95 -53 400 -159 204
-70 377 -130 385 -134 8 -3 -195 -6 -452 -6 l-468 -1 0 850 0 850 50 0 50 0 2
-685z m2678 -165 l0 -850 -467 1 c-258 0 -461 3 -453 6 8 4 177 62 375 130
198 68 370 131 383 139 13 8 32 29 42 47 19 31 20 56 20 705 l0 672 50 0 50 0
0 -850z m-2938 -288 c3 -687 -1 -649 71 -692 31 -20 62 -20 1477 -20 1415 0
1446 0 1477 20 72 43 68 5 71 692 l3 618 109 0 110 0 0 -1125 0 -1125 -1770 0
-1770 0 -2 1125 -3 1125 112 0 112 0 3 -618z m1896 -2124 l-3 -43 -345 0 -345
0 -3 43 -3 42 351 0 351 0 -3 -42z"/>
<path d="M1545 2018 c-50 -27 -60 -80 -22 -116 l23 -22 1015 0 1016 0 21 23
c36 38 28 88 -19 112 -24 13 -169 15 -1021 15 -699 -1 -999 -4 -1013 -12z"/>
<path d="M1525 1685 c-30 -30 -32 -64 -4 -99 l20 -26 670 0 670 0 24 25 c14
13 25 31 25 39 0 28 -22 64 -47 75 -17 8 -220 11 -679 11 l-655 0 -24 -25z"/>
</g>
</svg>
