<?xml version="1.0" standalone="no"?>
<!DOCTYPE svg PUBLIC "-//W3C//DTD SVG 20010904//EN"
 "http://www.w3.org/TR/2001/REC-SVG-20010904/DTD/svg10.dtd">
<svg version="1.0" xmlns="http://www.w3.org/2000/svg"
 width="512.000000pt" height="512.000000pt" viewBox="0 0 512.000000 512.000000"
 preserveAspectRatio="xMidYMid meet">

<g transform="translate(0.000000,512.000000) scale(0.100000,-0.100000)"
fill="#000000" stroke="none">
<path d="M3678 5107 c-131 -37 -221 -159 -221 -299 0 -92 43 -182 114 -238 64
-50 108 -65 199 -64 87 0 154 29 214 90 60 62 81 117 81 214 0 68 -4 94 -23
131 -66 134 -223 205 -364 166z m172 -177 c78 -56 79 -184 1 -239 -141 -101
-307 77 -199 214 45 58 136 69 198 25z"/>
<path d="M2390 4847 c-32 -16 -53 -60 -44 -90 4 -12 43 -59 87 -104 l81 -83
-77 -79 c-42 -43 -81 -90 -86 -105 -13 -32 -1 -68 31 -90 43 -31 66 -21 159
71 l89 87 89 -87 c100 -98 130 -109 176 -62 47 46 36 76 -62 176 l-87 89 87
89 c99 101 106 123 58 172 -49 49 -71 40 -189 -75 l-72 -71 -83 82 c-86 86
-116 101 -157 80z"/>
<path d="M1088 4417 c-85 -29 -108 -49 -108 -96 0 -31 16 -56 109 -173 l110
-136 -510 -482 c-340 -323 -509 -490 -510 -504 -1 -12 0 -28 1 -36 4 -30 292
-556 316 -577 14 -13 35 -23 47 -23 12 1 116 49 232 108 245 125 242 122 208
228 -19 58 -20 66 -6 71 9 4 85 -2 170 -12 210 -24 303 -13 385 47 25 18 32 5
36 -72 4 -61 0 -77 -25 -132 -39 -82 -127 -192 -283 -353 -152 -157 -204 -218
-263 -310 -136 -213 -198 -420 -199 -674 0 -75 3 -152 7 -173 l7 -36 -115 -4
c-128 -3 -150 -12 -194 -78 -22 -31 -23 -43 -23 -196 l0 -164 -157 0 c-131 0
-165 -4 -198 -19 -46 -21 -101 -79 -112 -119 -5 -15 -8 -101 -8 -192 0 -156 1
-167 24 -207 14 -24 42 -55 64 -70 l40 -28 1757 -3 1757 -2 44 23 c24 13 58
43 74 66 l30 43 0 187 c0 187 0 188 -27 228 -15 22 -44 51 -65 64 -35 22 -50
24 -205 27 l-166 4 -4 161 c-3 148 -5 165 -26 199 -38 62 -87 78 -233 78
l-125 0 -56 57 c-77 79 -102 130 -106 220 -4 60 0 80 21 127 30 65 107 144
169 175 24 11 68 25 98 31 30 6 63 19 73 29 49 48 82 294 74 536 -25 716 -343
1425 -784 1752 -200 149 -377 215 -636 237 l-142 12 -66 47 c-178 126 -351
165 -501 114z m297 -180 c41 -20 109 -61 151 -92 l76 -57 132 -3 c288 -8 511
-108 731 -329 303 -304 519 -818 576 -1371 14 -137 7 -400 -13 -483 -13 -52
-14 -54 -63 -70 -209 -71 -355 -262 -355 -466 0 -88 18 -152 64 -228 l35 -58
-874 0 -873 0 -6 38 c-41 276 25 556 186 790 29 41 116 141 192 221 337 353
426 500 396 655 -13 69 -97 251 -129 280 -32 29 -80 25 -105 -8 -90 -119 -128
-135 -291 -116 -188 21 -250 23 -291 10 -54 -17 -102 -55 -121 -96 -15 -31
-15 -38 2 -94 10 -33 16 -62 14 -64 -8 -7 -242 -116 -244 -114 -11 15 -215
400 -215 407 0 5 229 226 509 491 290 275 512 492 515 505 3 13 3 32 -1 42 -5
15 -110 150 -182 237 -15 18 -14 19 47 13 43 -3 87 -17 137 -40z m1785 -3457
l0 -140 -1265 0 -1265 0 0 140 0 140 1265 0 1265 0 0 -140z m458 -312 c17 -17
17 -279 0 -296 -9 -9 -407 -12 -1730 -12 -1688 0 -1717 0 -1728 19 -5 11 -10
74 -10 141 0 67 5 130 10 141 11 19 40 19 1728 19 1323 0 1721 -3 1730 -12z"/>
<path d="M1865 3895 c-48 -47 -30 -102 48 -141 135 -69 289 -202 397 -346 160
-212 277 -499 329 -810 19 -108 40 -353 41 -460 0 -47 28 -78 71 -78 42 0 65
15 77 49 13 37 -1 330 -23 472 -94 602 -398 1097 -802 1304 -81 41 -106 43
-138 10z"/>
<path d="M3733 4170 c-24 -10 -332 -386 -349 -427 -14 -33 -1 -79 26 -93 29
-16 78 -12 98 8 9 9 51 59 92 110 l75 93 5 -496 5 -497 28 -24 28 -24 370 0
369 0 0 -455 0 -456 25 -24 c32 -33 78 -33 110 0 l25 24 0 511 0 511 -25 24
-24 25 -376 0 -375 0 0 448 c1 353 3 444 13 432 7 -9 49 -62 95 -118 79 -97
85 -102 121 -102 26 0 44 7 59 23 44 47 34 67 -139 282 -88 110 -166 205 -172
212 -17 17 -59 24 -84 13z"/>
<path d="M4595 4119 c-31 -18 -45 -40 -45 -73 0 -25 16 -47 87 -118 l87 -88
-87 -88 c-98 -101 -109 -131 -62 -177 46 -47 78 -34 187 73 l78 76 88 -87 c97
-95 119 -103 166 -66 20 15 26 29 26 57 0 34 -9 46 -85 122 l-84 84 84 88 c73
75 85 92 85 122 0 49 -29 80 -74 80 -33 0 -46 -9 -124 -87 l-87 -87 -85 85
c-87 86 -120 103 -155 84z"/>
<path d="M4480 1527 c-139 -39 -224 -152 -224 -297 0 -125 61 -222 172 -277
77 -38 193 -39 262 -4 61 31 116 86 148 146 36 69 38 185 3 262 -27 61 -94
126 -156 154 -57 25 -148 32 -205 16z m145 -167 c47 -23 85 -80 85 -129 0 -51
-35 -108 -80 -131 -50 -25 -83 -25 -136 1 -44 21 -84 81 -84 127 0 53 42 114
95 138 42 19 72 17 120 -6z"/>
</g>
</svg>
