<svg id="Layer_5" enable-background="new 0 0 64 64" height="512" viewBox="0 0 64 64" width="512" xmlns="http://www.w3.org/2000/svg" xmlns:xlink="http://www.w3.org/1999/xlink"><linearGradient id="SVGID_1_" gradientUnits="userSpaceOnUse" x1="32" x2="32" y1="63" y2="1"><stop offset="0" stop-color="#9f2fff"/><stop offset="1" stop-color="#0bb1d3"/></linearGradient><path d="m35.553 49.658-4.764-2.382c-.361-.18-.767-.276-1.171-.276-1.443 0-2.618 1.175-2.618 2.618v4.764c0 1.443 1.175 2.618 2.618 2.618.404 0 .81-.096 1.171-.276l4.765-2.382c.891-.447 1.446-1.345 1.446-2.342s-.555-1.895-1.447-2.342zm-.895 2.895-4.764 2.382c-.386.197-.894-.117-.894-.553v-4.764c0-.341.277-.618.618-.618.096 0 .191.022.276.065l4.763 2.382c.212.106.343.318.343.553s-.131.447-.342.553zm-33.658.447h20.051c.507 5.598 5.221 10 10.949 10s10.442-4.402 10.949-10h20.051v-52h-62zm7-20v-11c0-5.514 4.486-10 10-10s10 4.486 10 10v11c0 1.043-.246 2.066-.69 3h-4.529l-.377-1.506c2.114-.929 3.596-3.041 3.596-5.494v-9h-4.528c-2.771 0-5.546-.655-8.024-1.895l-.448-.223-.447.224c-1.574.788-2.553 2.371-2.553 4.13v6.764c0 2.454 1.482 4.565 3.596 5.494l-.385 1.54c-1.367.119-2.644.552-3.768 1.215-.933-1.216-1.443-2.696-1.443-4.249zm26.535-1.879c-.34-.34-.535-.811-.535-1.293 0-1.008.82-1.828 1.828-1.828h.344c1.008 0 1.828.82 1.828 1.828v3.172c0 3.41-1.961 6.536-5.003 8.05-.329-.029-.661-.05-.997-.05-.684 0-1.35.071-2 .191v-3.201c2.834-.056 5.28-1.986 5.97-4.747l.138-.549zm-14.535 1.879h-4c-2.206 0-4-1.794-4-4v-6.764c0-.842.395-1.611 1.054-2.101 2.625 1.221 5.523 1.865 8.418 1.865h2.528v7c0 2.206-1.794 4-4 4zm-4.464 1.977c.154.011.307.023.464.023h4c.157 0 .31-.012.464-.023l.429 1.717-2.893 2.892-2.893-2.893zm-1.93 3.043 4.394 4.394 4.414-4.414h5.586v3.764c-3.794 1.488-6.567 5.018-6.949 9.236h-8.051v-9h-2v5h-4v-2c0-3.726 2.93-6.774 6.606-6.98zm-6.606 10.98h4v2h-4zm25 12c-4.963 0-9-4.037-9-9s4.037-9 9-9 9 4.037 9 9-4.037 9-9 9zm-29-58h58v48h-18.051c-.391-4.307-3.275-7.895-7.193-9.325 2.634-2.06 4.244-5.254 4.244-8.675v-3.172c0-1.825-1.287-3.352-3-3.732v-10.096h-2v10.096c-1.713.38-3 1.907-3 3.732 0 1.022.398 1.984 1.121 2.707l.743.743c-.634 1.627-2.204 2.722-3.987 2.722h-.41c.339-.96.533-1.972.533-3v-11c0-6.617-5.383-12-12-12s-12 5.383-12 12v11c0 1.991.653 3.888 1.844 5.449-1.747 1.642-2.844 3.969-2.844 6.551v6h-2zm13 21c0 .552-.448 1-1 1s-1-.448-1-1 .448-1 1-1 1 .448 1 1zm6 0c0 .552-.448 1-1 1s-1-.448-1-1 .448-1 1-1 1 .448 1 1zm-2 4h2c0 1.654-1.346 3-3 3h-3v-2h3c.552 0 1-.448 1-1zm39-23h-20v7h20zm-2 5h-16v-3h16zm2 6h-20v-2h20zm-2 2h2v2h-2zm-2 2h-16v-2h16zm4 4h-20v-2h20zm-17 2h17v2h-17zm0 4h17v2h-17zm15 17h2v2h-14v-2h2v-13h2v13h2v-11h2v11h2v-9h2z" fill="url(#SVGID_1_)"/></svg>