<svg id="Layer_5" enable-background="new 0 0 64 64" height="512" viewBox="0 0 64 64" width="512" xmlns="http://www.w3.org/2000/svg" xmlns:xlink="http://www.w3.org/1999/xlink"><linearGradient id="SVGID_1_" gradientUnits="userSpaceOnUse" x1="32" x2="32" y1="63" y2="1"><stop offset="0" stop-color="#9f2fff"/><stop offset="1" stop-color="#0bb1d3"/></linearGradient><path d="m32 59c2.757 0 5-2.243 5-5s-2.243-5-5-5-5 2.243-5 5 2.243 5 5 5zm0-8c1.654 0 3 1.346 3 3s-1.346 3-3 3-3-1.346-3-3 1.346-3 3-3zm15.238-18.418c.533-.198 1.066-.398 1.614-.566l4.148-1.278v-7.738h-3c-10.477 0-19 8.523-19 19v1h2.5l.3-.4c1.749-2.331 3.807-4.349 6.097-6.046l16.275 16.275c.756.755 1.76 1.171 2.828 1.171s2.072-.416 2.828-1.172 1.172-1.76 1.172-2.828-.416-2.072-1.172-2.828zm-14.151 7.688c.87-8.564 8.123-15.27 16.913-15.27h1v4.262l-2.736.842c-5.997 1.845-11.216 5.346-15.177 10.166zm27.327 11.144c-.756.756-2.072.756-2.828 0l-16.012-16.012c1.17-.747 2.391-1.413 3.664-1.993l15.177 15.177c.377.378.585.88.585 1.414s-.208 1.036-.586 1.414zm-.414-50.414h-10c-1.654 0-3 1.346-3 3v5h-4v-5c0-1.654-1.346-3-3-3h-10c-1.654 0-3 1.346-3 3v5h-4v-5c0-1.654-1.346-3-3-3h-10c-1.654 0-3 1.346-3 3v12c0 1.654 1.346 3 3 3h4v4h-10c-1.654 0-3 1.346-3 3v6c0 .771.301 1.468.78 2-.479.532-.78 1.229-.78 2v6c0 .771.301 1.468.78 2-.479.532-.78 1.229-.78 2v6c0 1.654 1.346 3 3 3h19v1.701l1.321.479-.596 1.273 3.82 3.82 1.273-.596.481 1.323h5.402l.479-1.321 1.273.596 3.82-3.82-.596-1.273 1.323-.481v-5.402l-1.321-.479.596-1.273-3.82-3.82-1.273.596-.481-1.323h-5.402l-.313.862c-.033-.716-.316-1.363-.766-1.862.48-.532.78-1.229.78-2v-6c0-.771-.301-1.468-.78-2 .48-.532.78-1.229.78-2v-6c0-1.654-1.346-3-3-3h-10v-4h4c1.654 0 3-1.346 3-3v-5h4v5c0 1.654 1.346 3 3 3h10c1.654 0 3-1.346 3-3v-5h4v5c0 1.654 1.346 3 3 3h10c1.654 0 3-1.346 3-3v-12c0-1.654-1.346-3-3-3zm-33 35v6c0 .552-.448 1-1 1h-22c-.552 0-1-.448-1-1v-6c0-.552.448-1 1-1h22c.552 0 1 .448 1 1zm-4 15.299v1.701h-19c-.552 0-1-.448-1-1v-6c0-.552.448-1 1-1h22c.552 0 1 .448 1 1v.271l-3.274 3.274.596 1.273zm7.248-3.053.453-1.246h2.598l.3.823.202.442 1.031.427 1.198-.561 1.838 1.838-.561 1.198.446 1.08 1.247.454v2.598l-.823.3-.442.202-.427 1.031.561 1.198-1.838 1.838-1.198-.561-1.08.446-.454 1.247h-2.598l-.3-.823-.202-.442-1.031-.427-1.198.561-1.838-1.838.561-1.198-.446-1.08-1.247-.454v-2.598l.823-.3.442-.202.427-1.031-.561-1.198 1.838-1.838 1.198.561zm-3.248-22.246v6c0 .552-.448 1-1 1h-22c-.552 0-1-.448-1-1v-6c0-.552.448-1 1-1h22c.552 0 1 .448 1 1zm-6-10c0 .552-.448 1-1 1h-10c-.552 0-1-.448-1-1v-12c0-.552.448-1 1-1h10c.552 0 1 .448 1 1zm20 0c0 .552-.448 1-1 1h-10c-.552 0-1-.448-1-1v-12c0-.552.448-1 1-1h10c.552 0 1 .448 1 1zm20 0c0 .552-.448 1-1 1h-10c-.552 0-1-.448-1-1v-12c0-.552.448-1 1-1h10c.552 0 1 .448 1 1zm-50-11h8v2h-8zm0 4h8v2h-8zm0 4h8v2h-8zm22-6h-2v-2h2zm2-2h4v2h-4zm-4 4h8v2h-8zm0 4h8v2h-8zm20 0h2v2h-2zm4 0h4v2h-4zm-4-4h2v2h-2zm4 0h4v2h-4zm-4-4h2v2h-2zm4 0h4v2h-4zm-44 24h-2v-2h2zm4 0h-2v-2h2zm-8 0h-2v-2h2zm6 18h2v2h-2zm-8 0h2v2h-2zm4 0h2v2h-2zm8-8h-2v-2h2zm8 0h-2v-2h2zm-4 0h-2v-2h2z" fill="url(#SVGID_1_)"/></svg>